<mxfile host="Electron" modified="2024-04-28T19:22:19.652Z" agent="Mozilla/5.0 (Windows NT 10.0; Win64; x64) AppleWebKit/537.36 (KHTML, like Gecko) draw.io/24.2.5 Chrome/120.0.6099.109 Electron/28.1.0 Safari/537.36" etag="goWe-PKCATNn3uHpC9vn" version="24.2.5" type="device">
  <diagram id="C5RBs43oDa-KdzZeNtuy" name="Übersicht">
    <mxGraphModel dx="2183" dy="1259" grid="1" gridSize="10" guides="1" tooltips="1" connect="1" arrows="1" fold="1" page="1" pageScale="1" pageWidth="1669" pageHeight="1654" math="0" shadow="0">
      <root>
        <mxCell id="WIyWlLk6GJQsqaUBKTNV-0" />
        <mxCell id="WIyWlLk6GJQsqaUBKTNV-1" parent="WIyWlLk6GJQsqaUBKTNV-0" />
        <mxCell id="xMCfnS1SF8QvDwuzywu5-9" value="" style="edgeStyle=orthogonalEdgeStyle;rounded=0;orthogonalLoop=1;jettySize=auto;html=1;entryX=0.5;entryY=0;entryDx=0;entryDy=0;" parent="WIyWlLk6GJQsqaUBKTNV-1" source="WIyWlLk6GJQsqaUBKTNV-3" target="xMCfnS1SF8QvDwuzywu5-0" edge="1">
          <mxGeometry relative="1" as="geometry">
            <mxPoint x="210" y="210" as="targetPoint" />
          </mxGeometry>
        </mxCell>
        <mxCell id="WIyWlLk6GJQsqaUBKTNV-3" value="Anmeldung via HMI" style="rounded=1;whiteSpace=wrap;html=1;fontSize=12;glass=0;strokeWidth=1;shadow=0;" parent="WIyWlLk6GJQsqaUBKTNV-1" vertex="1">
          <mxGeometry x="100" y="100" width="120" height="40" as="geometry" />
        </mxCell>
        <mxCell id="xMCfnS1SF8QvDwuzywu5-8" value="" style="edgeStyle=orthogonalEdgeStyle;rounded=0;orthogonalLoop=1;jettySize=auto;html=1;" parent="WIyWlLk6GJQsqaUBKTNV-1" source="xMCfnS1SF8QvDwuzywu5-0" target="xMCfnS1SF8QvDwuzywu5-5" edge="1">
          <mxGeometry relative="1" as="geometry" />
        </mxCell>
        <mxCell id="xMCfnS1SF8QvDwuzywu5-0" value="Team-/Spielernamen eingeben" style="rounded=1;whiteSpace=wrap;html=1;" parent="WIyWlLk6GJQsqaUBKTNV-1" vertex="1">
          <mxGeometry x="100" y="170" width="120" height="40" as="geometry" />
        </mxCell>
        <mxCell id="NL8cWzkEt_Ut7Inj3aOk-30" style="edgeStyle=orthogonalEdgeStyle;rounded=0;orthogonalLoop=1;jettySize=auto;html=1;" edge="1" parent="WIyWlLk6GJQsqaUBKTNV-1" source="xMCfnS1SF8QvDwuzywu5-5" target="xMCfnS1SF8QvDwuzywu5-21">
          <mxGeometry relative="1" as="geometry" />
        </mxCell>
        <mxCell id="xMCfnS1SF8QvDwuzywu5-5" value="&lt;div style=&quot;&quot;&gt;&lt;span style=&quot;background-color: initial;&quot;&gt;Vorbereitungsroutine:&lt;/span&gt;&lt;/div&gt;&lt;div&gt;&lt;ul&gt;&lt;li style=&quot;text-align: left;&quot;&gt;Netzwerkaufbau zwischen Raspi und Drohnensteuerung&lt;/li&gt;&lt;/ul&gt;&lt;/div&gt;" style="rounded=1;whiteSpace=wrap;html=1;align=center;" parent="WIyWlLk6GJQsqaUBKTNV-1" vertex="1">
          <mxGeometry x="70" y="240" width="180" height="110" as="geometry" />
        </mxCell>
        <mxCell id="xMCfnS1SF8QvDwuzywu5-27" value="" style="edgeStyle=orthogonalEdgeStyle;rounded=0;orthogonalLoop=1;jettySize=auto;html=1;entryX=0.5;entryY=0;entryDx=0;entryDy=0;" parent="WIyWlLk6GJQsqaUBKTNV-1" source="xMCfnS1SF8QvDwuzywu5-21" target="NL8cWzkEt_Ut7Inj3aOk-45" edge="1">
          <mxGeometry relative="1" as="geometry">
            <mxPoint x="160" y="530" as="targetPoint" />
          </mxGeometry>
        </mxCell>
        <mxCell id="xMCfnS1SF8QvDwuzywu5-28" value="Nein" style="edgeLabel;html=1;align=center;verticalAlign=middle;resizable=0;points=[];" parent="xMCfnS1SF8QvDwuzywu5-27" vertex="1" connectable="0">
          <mxGeometry x="-0.17" y="-2" relative="1" as="geometry">
            <mxPoint as="offset" />
          </mxGeometry>
        </mxCell>
        <mxCell id="NL8cWzkEt_Ut7Inj3aOk-46" style="edgeStyle=orthogonalEdgeStyle;rounded=1;orthogonalLoop=1;jettySize=auto;html=1;entryX=0;entryY=0.5;entryDx=0;entryDy=0;curved=0;exitX=1;exitY=0.5;exitDx=0;exitDy=0;" edge="1" parent="WIyWlLk6GJQsqaUBKTNV-1" source="xMCfnS1SF8QvDwuzywu5-21" target="NL8cWzkEt_Ut7Inj3aOk-12">
          <mxGeometry relative="1" as="geometry">
            <Array as="points">
              <mxPoint x="300" y="430" />
              <mxPoint x="300" y="270" />
            </Array>
          </mxGeometry>
        </mxCell>
        <mxCell id="NL8cWzkEt_Ut7Inj3aOk-57" value="Ja&amp;nbsp;" style="edgeLabel;html=1;align=center;verticalAlign=middle;resizable=0;points=[];" vertex="1" connectable="0" parent="NL8cWzkEt_Ut7Inj3aOk-46">
          <mxGeometry x="-0.8687" relative="1" as="geometry">
            <mxPoint as="offset" />
          </mxGeometry>
        </mxCell>
        <mxCell id="xMCfnS1SF8QvDwuzywu5-21" value="Drohne gewünscht?" style="rhombus;whiteSpace=wrap;html=1;shadow=0;fontFamily=Helvetica;fontSize=12;align=center;strokeWidth=1;spacing=6;spacingTop=-4;" parent="WIyWlLk6GJQsqaUBKTNV-1" vertex="1">
          <mxGeometry x="95" y="390" width="130" height="80" as="geometry" />
        </mxCell>
        <mxCell id="xMCfnS1SF8QvDwuzywu5-38" value="" style="edgeStyle=orthogonalEdgeStyle;rounded=0;orthogonalLoop=1;jettySize=auto;html=1;entryX=0.5;entryY=0;entryDx=0;entryDy=0;" parent="WIyWlLk6GJQsqaUBKTNV-1" source="xMCfnS1SF8QvDwuzywu5-35" target="xMCfnS1SF8QvDwuzywu5-40" edge="1">
          <mxGeometry relative="1" as="geometry">
            <mxPoint x="159.98000000000002" y="810" as="targetPoint" />
          </mxGeometry>
        </mxCell>
        <mxCell id="xMCfnS1SF8QvDwuzywu5-35" value="Aufnahme des Spielbetriebs durch Spieler" style="whiteSpace=wrap;html=1;rounded=1;shadow=0;strokeWidth=1;spacing=6;spacingTop=-4;" parent="WIyWlLk6GJQsqaUBKTNV-1" vertex="1">
          <mxGeometry x="99.98" y="620" width="120" height="60" as="geometry" />
        </mxCell>
        <mxCell id="xMCfnS1SF8QvDwuzywu5-41" style="edgeStyle=orthogonalEdgeStyle;rounded=1;orthogonalLoop=1;jettySize=auto;html=1;exitX=0;exitY=0.5;exitDx=0;exitDy=0;entryX=0;entryY=0.5;entryDx=0;entryDy=0;curved=0;" parent="WIyWlLk6GJQsqaUBKTNV-1" source="xMCfnS1SF8QvDwuzywu5-39" target="xMCfnS1SF8QvDwuzywu5-40" edge="1">
          <mxGeometry relative="1" as="geometry">
            <Array as="points">
              <mxPoint x="19.98" y="890" />
              <mxPoint x="19.98" y="750" />
            </Array>
          </mxGeometry>
        </mxCell>
        <mxCell id="xMCfnS1SF8QvDwuzywu5-42" value="Nein" style="edgeLabel;html=1;align=center;verticalAlign=middle;resizable=0;points=[];" parent="xMCfnS1SF8QvDwuzywu5-41" vertex="1" connectable="0">
          <mxGeometry x="-0.8095" y="3" relative="1" as="geometry">
            <mxPoint y="-3" as="offset" />
          </mxGeometry>
        </mxCell>
        <mxCell id="91_VfKhn5N14b0In2avB-1" value="" style="edgeStyle=orthogonalEdgeStyle;rounded=1;orthogonalLoop=1;jettySize=auto;html=1;curved=0;exitX=1;exitY=0.5;exitDx=0;exitDy=0;entryX=0;entryY=0.5;entryDx=0;entryDy=0;" parent="WIyWlLk6GJQsqaUBKTNV-1" source="xMCfnS1SF8QvDwuzywu5-39" target="91_VfKhn5N14b0In2avB-8" edge="1">
          <mxGeometry relative="1" as="geometry">
            <mxPoint x="389.98" y="300" as="targetPoint" />
            <Array as="points">
              <mxPoint x="320.05" y="890" />
              <mxPoint x="320.05" y="730" />
              <mxPoint x="360.05" y="730" />
            </Array>
          </mxGeometry>
        </mxCell>
        <mxCell id="91_VfKhn5N14b0In2avB-3" value="" style="edgeStyle=orthogonalEdgeStyle;rounded=1;orthogonalLoop=1;jettySize=auto;html=1;entryX=0;entryY=0.5;entryDx=0;entryDy=0;curved=0;exitX=1;exitY=0.5;exitDx=0;exitDy=0;" parent="WIyWlLk6GJQsqaUBKTNV-1" source="xMCfnS1SF8QvDwuzywu5-39" target="91_VfKhn5N14b0In2avB-7" edge="1">
          <mxGeometry relative="1" as="geometry">
            <mxPoint x="399.98" y="460" as="targetPoint" />
            <Array as="points">
              <mxPoint x="360.05" y="890" />
            </Array>
          </mxGeometry>
        </mxCell>
        <mxCell id="91_VfKhn5N14b0In2avB-12" value="" style="edgeStyle=orthogonalEdgeStyle;rounded=1;orthogonalLoop=1;jettySize=auto;html=1;curved=0;entryX=0;entryY=0.5;entryDx=0;entryDy=0;" parent="WIyWlLk6GJQsqaUBKTNV-1" source="xMCfnS1SF8QvDwuzywu5-39" target="91_VfKhn5N14b0In2avB-10" edge="1">
          <mxGeometry relative="1" as="geometry">
            <mxPoint x="359.98" y="910" as="targetPoint" />
            <Array as="points">
              <mxPoint x="320.05" y="890" />
              <mxPoint x="320.05" y="1051" />
            </Array>
          </mxGeometry>
        </mxCell>
        <mxCell id="91_VfKhn5N14b0In2avB-13" value="Ja&amp;nbsp;" style="edgeLabel;html=1;align=center;verticalAlign=middle;resizable=0;points=[];" parent="91_VfKhn5N14b0In2avB-12" vertex="1" connectable="0">
          <mxGeometry x="-0.7662" y="-1" relative="1" as="geometry">
            <mxPoint x="-1" as="offset" />
          </mxGeometry>
        </mxCell>
        <mxCell id="xMCfnS1SF8QvDwuzywu5-39" value="Spielereignis geschehen?" style="rhombus;whiteSpace=wrap;html=1;shadow=0;strokeWidth=1;spacing=6;spacingTop=-4;" parent="WIyWlLk6GJQsqaUBKTNV-1" vertex="1">
          <mxGeometry x="69.98" y="820" width="180" height="140" as="geometry" />
        </mxCell>
        <mxCell id="91_VfKhn5N14b0In2avB-6" value="" style="edgeStyle=orthogonalEdgeStyle;rounded=0;orthogonalLoop=1;jettySize=auto;html=1;" parent="WIyWlLk6GJQsqaUBKTNV-1" source="xMCfnS1SF8QvDwuzywu5-40" target="xMCfnS1SF8QvDwuzywu5-39" edge="1">
          <mxGeometry relative="1" as="geometry" />
        </mxCell>
        <mxCell id="xMCfnS1SF8QvDwuzywu5-40" value="Aktives Spielgeschehen" style="whiteSpace=wrap;html=1;rounded=1;shadow=0;strokeWidth=1;spacing=6;spacingTop=-4;" parent="WIyWlLk6GJQsqaUBKTNV-1" vertex="1">
          <mxGeometry x="99.98" y="720" width="120" height="60" as="geometry" />
        </mxCell>
        <mxCell id="91_VfKhn5N14b0In2avB-24" value="" style="edgeStyle=orthogonalEdgeStyle;rounded=0;orthogonalLoop=1;jettySize=auto;html=1;" parent="WIyWlLk6GJQsqaUBKTNV-1" source="91_VfKhn5N14b0In2avB-7" target="91_VfKhn5N14b0In2avB-23" edge="1">
          <mxGeometry relative="1" as="geometry" />
        </mxCell>
        <mxCell id="91_VfKhn5N14b0In2avB-7" value="Foul erkannt" style="rounded=1;whiteSpace=wrap;html=1;" parent="WIyWlLk6GJQsqaUBKTNV-1" vertex="1">
          <mxGeometry x="359.98" y="860.5799999999999" width="120" height="60" as="geometry" />
        </mxCell>
        <mxCell id="91_VfKhn5N14b0In2avB-17" value="" style="edgeStyle=orthogonalEdgeStyle;rounded=0;orthogonalLoop=1;jettySize=auto;html=1;" parent="WIyWlLk6GJQsqaUBKTNV-1" source="91_VfKhn5N14b0In2avB-8" target="91_VfKhn5N14b0In2avB-16" edge="1">
          <mxGeometry relative="1" as="geometry" />
        </mxCell>
        <mxCell id="91_VfKhn5N14b0In2avB-8" value="Tor erzielt" style="rounded=1;whiteSpace=wrap;html=1;" parent="WIyWlLk6GJQsqaUBKTNV-1" vertex="1">
          <mxGeometry x="359.98" y="700.5799999999999" width="120" height="60" as="geometry" />
        </mxCell>
        <mxCell id="91_VfKhn5N14b0In2avB-41" style="edgeStyle=orthogonalEdgeStyle;rounded=0;orthogonalLoop=1;jettySize=auto;html=1;entryX=0;entryY=0.5;entryDx=0;entryDy=0;" parent="WIyWlLk6GJQsqaUBKTNV-1" source="91_VfKhn5N14b0In2avB-10" target="91_VfKhn5N14b0In2avB-38" edge="1">
          <mxGeometry relative="1" as="geometry" />
        </mxCell>
        <mxCell id="91_VfKhn5N14b0In2avB-10" value="Manuelles beenden" style="rounded=1;whiteSpace=wrap;html=1;" parent="WIyWlLk6GJQsqaUBKTNV-1" vertex="1">
          <mxGeometry x="359.98" y="1020.5799999999999" width="120" height="60" as="geometry" />
        </mxCell>
        <mxCell id="91_VfKhn5N14b0In2avB-19" value="" style="edgeStyle=orthogonalEdgeStyle;rounded=0;orthogonalLoop=1;jettySize=auto;html=1;" parent="WIyWlLk6GJQsqaUBKTNV-1" source="91_VfKhn5N14b0In2avB-16" target="91_VfKhn5N14b0In2avB-18" edge="1">
          <mxGeometry relative="1" as="geometry" />
        </mxCell>
        <mxCell id="91_VfKhn5N14b0In2avB-16" value="Spielstand aktualisieren" style="rounded=1;whiteSpace=wrap;html=1;" parent="WIyWlLk6GJQsqaUBKTNV-1" vertex="1">
          <mxGeometry x="519.9799999999999" y="700.5799999999999" width="120" height="60" as="geometry" />
        </mxCell>
        <mxCell id="91_VfKhn5N14b0In2avB-20" style="edgeStyle=orthogonalEdgeStyle;rounded=1;orthogonalLoop=1;jettySize=auto;html=1;entryX=1;entryY=0.5;entryDx=0;entryDy=0;curved=0;exitX=0.5;exitY=0;exitDx=0;exitDy=0;" parent="WIyWlLk6GJQsqaUBKTNV-1" source="91_VfKhn5N14b0In2avB-18" target="xMCfnS1SF8QvDwuzywu5-35" edge="1">
          <mxGeometry relative="1" as="geometry">
            <Array as="points">
              <mxPoint x="740.05" y="650" />
            </Array>
          </mxGeometry>
        </mxCell>
        <mxCell id="91_VfKhn5N14b0In2avB-21" value="Nein" style="edgeLabel;html=1;align=center;verticalAlign=middle;resizable=0;points=[];" parent="91_VfKhn5N14b0In2avB-20" vertex="1" connectable="0">
          <mxGeometry x="-0.9731" y="1" relative="1" as="geometry">
            <mxPoint x="1" y="-9" as="offset" />
          </mxGeometry>
        </mxCell>
        <mxCell id="91_VfKhn5N14b0In2avB-32" style="edgeStyle=orthogonalEdgeStyle;rounded=1;orthogonalLoop=1;jettySize=auto;html=1;entryX=0.5;entryY=0;entryDx=0;entryDy=0;curved=0;" parent="WIyWlLk6GJQsqaUBKTNV-1" source="91_VfKhn5N14b0In2avB-18" target="91_VfKhn5N14b0In2avB-38" edge="1">
          <mxGeometry relative="1" as="geometry">
            <mxPoint x="929.9799999999999" y="900.5799999999997" as="targetPoint" />
          </mxGeometry>
        </mxCell>
        <mxCell id="91_VfKhn5N14b0In2avB-39" value="Ja&amp;nbsp;" style="edgeLabel;html=1;align=center;verticalAlign=middle;resizable=0;points=[];" parent="91_VfKhn5N14b0In2avB-32" vertex="1" connectable="0">
          <mxGeometry x="-0.8965" relative="1" as="geometry">
            <mxPoint as="offset" />
          </mxGeometry>
        </mxCell>
        <mxCell id="91_VfKhn5N14b0In2avB-18" value="Siegbedingung&amp;nbsp;&lt;div&gt;erfüllt?&lt;/div&gt;" style="rhombus;whiteSpace=wrap;html=1;shadow=0;strokeWidth=1;spacing=6;spacingTop=-4;" parent="WIyWlLk6GJQsqaUBKTNV-1" vertex="1">
          <mxGeometry x="679.9799999999999" y="680.5799999999999" width="120" height="100" as="geometry" />
        </mxCell>
        <mxCell id="91_VfKhn5N14b0In2avB-26" value="" style="edgeStyle=orthogonalEdgeStyle;rounded=0;orthogonalLoop=1;jettySize=auto;html=1;" parent="WIyWlLk6GJQsqaUBKTNV-1" source="91_VfKhn5N14b0In2avB-23" target="91_VfKhn5N14b0In2avB-25" edge="1">
          <mxGeometry relative="1" as="geometry" />
        </mxCell>
        <mxCell id="91_VfKhn5N14b0In2avB-23" value="Spielunterbrechung" style="whiteSpace=wrap;html=1;rounded=1;" parent="WIyWlLk6GJQsqaUBKTNV-1" vertex="1">
          <mxGeometry x="519.9799999999999" y="860.5799999999999" width="120" height="60" as="geometry" />
        </mxCell>
        <mxCell id="91_VfKhn5N14b0In2avB-34" style="edgeStyle=orthogonalEdgeStyle;rounded=1;orthogonalLoop=1;jettySize=auto;html=1;flowAnimation=0;curved=0;jumpStyle=arc;" parent="WIyWlLk6GJQsqaUBKTNV-1" source="91_VfKhn5N14b0In2avB-25" edge="1">
          <mxGeometry relative="1" as="geometry">
            <mxPoint x="219.98000000000002" y="650" as="targetPoint" />
            <Array as="points">
              <mxPoint x="840.05" y="891" />
              <mxPoint x="840.05" y="650" />
            </Array>
          </mxGeometry>
        </mxCell>
        <mxCell id="91_VfKhn5N14b0In2avB-25" value="Konsequenzen nach Verstoß durchführen" style="whiteSpace=wrap;html=1;rounded=1;" parent="WIyWlLk6GJQsqaUBKTNV-1" vertex="1">
          <mxGeometry x="679.9799999999999" y="860.5799999999999" width="120" height="60" as="geometry" />
        </mxCell>
        <mxCell id="91_VfKhn5N14b0In2avB-43" value="" style="edgeStyle=orthogonalEdgeStyle;rounded=1;orthogonalLoop=1;jettySize=auto;html=1;curved=0;" parent="WIyWlLk6GJQsqaUBKTNV-1" source="91_VfKhn5N14b0In2avB-38" target="91_VfKhn5N14b0In2avB-42" edge="1">
          <mxGeometry relative="1" as="geometry" />
        </mxCell>
        <mxCell id="91_VfKhn5N14b0In2avB-51" style="edgeStyle=orthogonalEdgeStyle;rounded=1;orthogonalLoop=1;jettySize=auto;html=1;entryX=0;entryY=0.5;entryDx=0;entryDy=0;curved=0;" parent="WIyWlLk6GJQsqaUBKTNV-1" source="91_VfKhn5N14b0In2avB-38" target="91_VfKhn5N14b0In2avB-44" edge="1">
          <mxGeometry relative="1" as="geometry" />
        </mxCell>
        <mxCell id="91_VfKhn5N14b0In2avB-38" value="Meldung über Spielende" style="rounded=1;whiteSpace=wrap;html=1;" parent="WIyWlLk6GJQsqaUBKTNV-1" vertex="1">
          <mxGeometry x="879.9799999999999" y="1020.5799999999999" width="120" height="60" as="geometry" />
        </mxCell>
        <mxCell id="91_VfKhn5N14b0In2avB-53" value="" style="edgeStyle=orthogonalEdgeStyle;rounded=0;orthogonalLoop=1;jettySize=auto;html=1;" parent="WIyWlLk6GJQsqaUBKTNV-1" source="91_VfKhn5N14b0In2avB-42" target="91_VfKhn5N14b0In2avB-52" edge="1">
          <mxGeometry relative="1" as="geometry" />
        </mxCell>
        <mxCell id="91_VfKhn5N14b0In2avB-42" value="Drohne kehrt zum Landeplatz zurück" style="whiteSpace=wrap;html=1;rounded=1;" parent="WIyWlLk6GJQsqaUBKTNV-1" vertex="1">
          <mxGeometry x="1079.98" y="960.5799999999999" width="120" height="60" as="geometry" />
        </mxCell>
        <mxCell id="91_VfKhn5N14b0In2avB-55" style="edgeStyle=orthogonalEdgeStyle;rounded=0;orthogonalLoop=1;jettySize=auto;html=1;" parent="WIyWlLk6GJQsqaUBKTNV-1" source="91_VfKhn5N14b0In2avB-44" target="91_VfKhn5N14b0In2avB-54" edge="1">
          <mxGeometry relative="1" as="geometry" />
        </mxCell>
        <mxCell id="91_VfKhn5N14b0In2avB-44" value="Verknüpfung des Spielstands mit Team-/Spielernamen" style="whiteSpace=wrap;html=1;rounded=1;" parent="WIyWlLk6GJQsqaUBKTNV-1" vertex="1">
          <mxGeometry x="1079.98" y="1080.58" width="120" height="60" as="geometry" />
        </mxCell>
        <mxCell id="91_VfKhn5N14b0In2avB-60" value="" style="edgeStyle=orthogonalEdgeStyle;rounded=0;orthogonalLoop=1;jettySize=auto;html=1;" parent="WIyWlLk6GJQsqaUBKTNV-1" source="91_VfKhn5N14b0In2avB-52" target="91_VfKhn5N14b0In2avB-59" edge="1">
          <mxGeometry relative="1" as="geometry" />
        </mxCell>
        <mxCell id="91_VfKhn5N14b0In2avB-52" value="Drohe beendet Flugbetrieb" style="whiteSpace=wrap;html=1;rounded=1;" parent="WIyWlLk6GJQsqaUBKTNV-1" vertex="1">
          <mxGeometry x="1239.98" y="960.5799999999999" width="120" height="60" as="geometry" />
        </mxCell>
        <mxCell id="91_VfKhn5N14b0In2avB-57" style="edgeStyle=orthogonalEdgeStyle;rounded=1;orthogonalLoop=1;jettySize=auto;html=1;curved=0;entryX=0.5;entryY=0;entryDx=0;entryDy=0;entryPerimeter=0;" parent="WIyWlLk6GJQsqaUBKTNV-1" source="91_VfKhn5N14b0In2avB-54" target="NL8cWzkEt_Ut7Inj3aOk-5" edge="1">
          <mxGeometry relative="1" as="geometry">
            <mxPoint x="1459.98" y="1230.58" as="targetPoint" />
            <Array as="points">
              <mxPoint x="1460.05" y="1110.58" />
            </Array>
          </mxGeometry>
        </mxCell>
        <mxCell id="91_VfKhn5N14b0In2avB-54" value="Speichern in Datenbank" style="shape=parallelogram;html=1;strokeWidth=2;perimeter=parallelogramPerimeter;whiteSpace=wrap;rounded=1;arcSize=12;size=0.23;" parent="WIyWlLk6GJQsqaUBKTNV-1" vertex="1">
          <mxGeometry x="1239.98" y="1080.58" width="100" height="60" as="geometry" />
        </mxCell>
        <mxCell id="91_VfKhn5N14b0In2avB-62" style="edgeStyle=orthogonalEdgeStyle;rounded=0;orthogonalLoop=1;jettySize=auto;html=1;entryX=0.5;entryY=0;entryDx=0;entryDy=0;entryPerimeter=0;" parent="WIyWlLk6GJQsqaUBKTNV-1" source="91_VfKhn5N14b0In2avB-59" target="NL8cWzkEt_Ut7Inj3aOk-5" edge="1">
          <mxGeometry relative="1" as="geometry">
            <mxPoint x="1459.9800000000002" y="1170.58" as="targetPoint" />
          </mxGeometry>
        </mxCell>
        <mxCell id="91_VfKhn5N14b0In2avB-59" value="Drohne schaltet ab" style="whiteSpace=wrap;html=1;rounded=1;" parent="WIyWlLk6GJQsqaUBKTNV-1" vertex="1">
          <mxGeometry x="1399.98" y="960.5799999999999" width="120" height="60" as="geometry" />
        </mxCell>
        <mxCell id="NL8cWzkEt_Ut7Inj3aOk-5" value="Ende" style="strokeWidth=1;html=1;shape=mxgraph.flowchart.terminator;whiteSpace=wrap;" vertex="1" parent="WIyWlLk6GJQsqaUBKTNV-1">
          <mxGeometry x="1409.98" y="1140.58" width="100" height="60" as="geometry" />
        </mxCell>
        <mxCell id="NL8cWzkEt_Ut7Inj3aOk-9" value="" style="edgeStyle=orthogonalEdgeStyle;rounded=0;orthogonalLoop=1;jettySize=auto;html=1;" edge="1" parent="WIyWlLk6GJQsqaUBKTNV-1" source="NL8cWzkEt_Ut7Inj3aOk-8">
          <mxGeometry relative="1" as="geometry">
            <mxPoint x="160" y="100" as="targetPoint" />
          </mxGeometry>
        </mxCell>
        <mxCell id="NL8cWzkEt_Ut7Inj3aOk-8" value="Start" style="ellipse;whiteSpace=wrap;html=1;" vertex="1" parent="WIyWlLk6GJQsqaUBKTNV-1">
          <mxGeometry x="114.92999999999995" y="20" width="90" height="50" as="geometry" />
        </mxCell>
        <mxCell id="NL8cWzkEt_Ut7Inj3aOk-47" style="edgeStyle=orthogonalEdgeStyle;rounded=0;orthogonalLoop=1;jettySize=auto;html=1;entryX=0;entryY=0.5;entryDx=0;entryDy=0;" edge="1" parent="WIyWlLk6GJQsqaUBKTNV-1" source="NL8cWzkEt_Ut7Inj3aOk-12" target="NL8cWzkEt_Ut7Inj3aOk-17">
          <mxGeometry relative="1" as="geometry" />
        </mxCell>
        <mxCell id="NL8cWzkEt_Ut7Inj3aOk-12" value="Anfrage an Drohnensteuerung" style="whiteSpace=wrap;html=1;shadow=0;strokeWidth=1;spacing=6;spacingTop=-4;rounded=1;" vertex="1" parent="WIyWlLk6GJQsqaUBKTNV-1">
          <mxGeometry x="330" y="250" width="120" height="40" as="geometry" />
        </mxCell>
        <mxCell id="NL8cWzkEt_Ut7Inj3aOk-49" style="edgeStyle=orthogonalEdgeStyle;rounded=0;orthogonalLoop=1;jettySize=auto;html=1;entryX=0;entryY=0.5;entryDx=0;entryDy=0;" edge="1" parent="WIyWlLk6GJQsqaUBKTNV-1" source="NL8cWzkEt_Ut7Inj3aOk-17" target="NL8cWzkEt_Ut7Inj3aOk-48">
          <mxGeometry relative="1" as="geometry" />
        </mxCell>
        <mxCell id="NL8cWzkEt_Ut7Inj3aOk-52" value="Ja&amp;nbsp;" style="edgeLabel;html=1;align=center;verticalAlign=middle;resizable=0;points=[];" vertex="1" connectable="0" parent="NL8cWzkEt_Ut7Inj3aOk-49">
          <mxGeometry x="-0.4106" y="-1" relative="1" as="geometry">
            <mxPoint y="-1" as="offset" />
          </mxGeometry>
        </mxCell>
        <mxCell id="NL8cWzkEt_Ut7Inj3aOk-50" style="edgeStyle=orthogonalEdgeStyle;rounded=1;orthogonalLoop=1;jettySize=auto;html=1;entryX=1;entryY=0.5;entryDx=0;entryDy=0;curved=0;" edge="1" parent="WIyWlLk6GJQsqaUBKTNV-1" source="NL8cWzkEt_Ut7Inj3aOk-17" target="NL8cWzkEt_Ut7Inj3aOk-45">
          <mxGeometry relative="1" as="geometry">
            <Array as="points">
              <mxPoint x="550" y="550" />
            </Array>
          </mxGeometry>
        </mxCell>
        <mxCell id="NL8cWzkEt_Ut7Inj3aOk-51" value="Nein" style="edgeLabel;html=1;align=center;verticalAlign=middle;resizable=0;points=[];" vertex="1" connectable="0" parent="NL8cWzkEt_Ut7Inj3aOk-50">
          <mxGeometry x="-0.9143" relative="1" as="geometry">
            <mxPoint as="offset" />
          </mxGeometry>
        </mxCell>
        <mxCell id="NL8cWzkEt_Ut7Inj3aOk-17" value="Drohne verfügbar?" style="rhombus;whiteSpace=wrap;html=1;shadow=0;fontFamily=Helvetica;fontSize=12;align=center;strokeWidth=1;spacing=6;spacingTop=-4;" vertex="1" parent="WIyWlLk6GJQsqaUBKTNV-1">
          <mxGeometry x="489.99999999999994" y="230" width="120" height="80" as="geometry" />
        </mxCell>
        <mxCell id="NL8cWzkEt_Ut7Inj3aOk-59" style="edgeStyle=orthogonalEdgeStyle;rounded=0;orthogonalLoop=1;jettySize=auto;html=1;entryX=0.5;entryY=0;entryDx=0;entryDy=0;" edge="1" parent="WIyWlLk6GJQsqaUBKTNV-1" source="NL8cWzkEt_Ut7Inj3aOk-37" target="NL8cWzkEt_Ut7Inj3aOk-41">
          <mxGeometry relative="1" as="geometry" />
        </mxCell>
        <mxCell id="NL8cWzkEt_Ut7Inj3aOk-37" value="Manuelles starten der Drohne" style="whiteSpace=wrap;html=1;shadow=0;strokeWidth=1;spacing=6;spacingTop=-4;rounded=1;" vertex="1" parent="WIyWlLk6GJQsqaUBKTNV-1">
          <mxGeometry x="820" y="410" width="120" height="40" as="geometry" />
        </mxCell>
        <mxCell id="NL8cWzkEt_Ut7Inj3aOk-56" value="" style="edgeStyle=orthogonalEdgeStyle;rounded=0;orthogonalLoop=1;jettySize=auto;html=1;" edge="1" parent="WIyWlLk6GJQsqaUBKTNV-1" source="NL8cWzkEt_Ut7Inj3aOk-40" target="NL8cWzkEt_Ut7Inj3aOk-55">
          <mxGeometry relative="1" as="geometry" />
        </mxCell>
        <mxCell id="NL8cWzkEt_Ut7Inj3aOk-40" value="Flugsteuerung und KI-Einehit starten" style="whiteSpace=wrap;html=1;rounded=1;glass=0;strokeWidth=1;shadow=0;" vertex="1" parent="WIyWlLk6GJQsqaUBKTNV-1">
          <mxGeometry x="820" y="250" width="120" height="40" as="geometry" />
        </mxCell>
        <mxCell id="NL8cWzkEt_Ut7Inj3aOk-61" style="edgeStyle=orthogonalEdgeStyle;rounded=1;orthogonalLoop=1;jettySize=auto;html=1;curved=0;" edge="1" parent="WIyWlLk6GJQsqaUBKTNV-1" source="NL8cWzkEt_Ut7Inj3aOk-41">
          <mxGeometry relative="1" as="geometry">
            <mxPoint x="220" y="550" as="targetPoint" />
            <Array as="points">
              <mxPoint x="880" y="550" />
            </Array>
          </mxGeometry>
        </mxCell>
        <mxCell id="NL8cWzkEt_Ut7Inj3aOk-41" value="Drohne fliegt in Position" style="rounded=1;whiteSpace=wrap;html=1;" vertex="1" parent="WIyWlLk6GJQsqaUBKTNV-1">
          <mxGeometry x="820" y="490" width="120" height="40" as="geometry" />
        </mxCell>
        <mxCell id="NL8cWzkEt_Ut7Inj3aOk-62" value="" style="edgeStyle=orthogonalEdgeStyle;rounded=0;orthogonalLoop=1;jettySize=auto;html=1;" edge="1" parent="WIyWlLk6GJQsqaUBKTNV-1" source="NL8cWzkEt_Ut7Inj3aOk-45" target="xMCfnS1SF8QvDwuzywu5-35">
          <mxGeometry relative="1" as="geometry" />
        </mxCell>
        <mxCell id="NL8cWzkEt_Ut7Inj3aOk-45" value="Rückmeldung auf Display/HMI" style="whiteSpace=wrap;html=1;rounded=1;glass=0;strokeWidth=1;shadow=0;" vertex="1" parent="WIyWlLk6GJQsqaUBKTNV-1">
          <mxGeometry x="99.93000000000006" y="520" width="120" height="60" as="geometry" />
        </mxCell>
        <mxCell id="NL8cWzkEt_Ut7Inj3aOk-54" style="edgeStyle=orthogonalEdgeStyle;rounded=0;orthogonalLoop=1;jettySize=auto;html=1;entryX=0;entryY=0.5;entryDx=0;entryDy=0;" edge="1" parent="WIyWlLk6GJQsqaUBKTNV-1" source="NL8cWzkEt_Ut7Inj3aOk-48" target="NL8cWzkEt_Ut7Inj3aOk-40">
          <mxGeometry relative="1" as="geometry">
            <mxPoint x="835" y="270" as="targetPoint" />
          </mxGeometry>
        </mxCell>
        <mxCell id="NL8cWzkEt_Ut7Inj3aOk-48" value="Verbindungsaufbau zur Drohne / Manuelles aktivieren der Drohne" style="rounded=1;whiteSpace=wrap;html=1;" vertex="1" parent="WIyWlLk6GJQsqaUBKTNV-1">
          <mxGeometry x="660.0000000000002" y="240" width="120" height="60" as="geometry" />
        </mxCell>
        <mxCell id="NL8cWzkEt_Ut7Inj3aOk-58" style="edgeStyle=orthogonalEdgeStyle;rounded=0;orthogonalLoop=1;jettySize=auto;html=1;entryX=0.5;entryY=0;entryDx=0;entryDy=0;" edge="1" parent="WIyWlLk6GJQsqaUBKTNV-1" source="NL8cWzkEt_Ut7Inj3aOk-55" target="NL8cWzkEt_Ut7Inj3aOk-37">
          <mxGeometry relative="1" as="geometry" />
        </mxCell>
        <mxCell id="NL8cWzkEt_Ut7Inj3aOk-55" value="Flugsteuerung und KI-Einheit starten" style="whiteSpace=wrap;html=1;rounded=1;glass=0;strokeWidth=1;shadow=0;" vertex="1" parent="WIyWlLk6GJQsqaUBKTNV-1">
          <mxGeometry x="820" y="330" width="120" height="40" as="geometry" />
        </mxCell>
      </root>
    </mxGraphModel>
  </diagram>
</mxfile>
